<svg xmlns="http://www.w3.org/2000/svg" viewBox="0 0 160 180" fill="none">
  <path
    d="M80 8C99 22 121 31 148 35V89C148 126 129 153 80 176C31 153 12 126 12 89V35C39 31 61 22 80 8Z"
    fill="#215C36"
  />
  <path
    d="M80 26C95 36 112 43 131 46V87C131 114 116 136 80 156C44 136 29 114 29 87V46C48 43 65 36 80 26Z"
    fill="#215C36"
    stroke="#F6C94C"
    stroke-linejoin="round"
    stroke-width="12"
  />
  <rect x="68" y="54" width="24" height="72" rx="8" fill="#fff"/>
  <rect x="44" y="78" width="72" height="24" rx="8" fill="#fff"/>
</svg>
